HIERARCHY
ROOT root
{
  OFFSET 0 93.2929 0
  CHANNELS 6 Xposition Yposition Zposition Zrotation Xrotation Yrotation
  JOINT torso_1
  {
    OFFSET 0 5.07867 -1.15138
    CHANNELS 6 Xposition Yposition Zposition Zrotation Xrotation Yrotation
    JOINT torso_2
    {
      OFFSET 0 5.61661 1.07143
      CHANNELS 6 Xposition Yposition Zposition Zrotation Xrotation Yrotation
      JOINT torso_3
      {
        OFFSET -1.02604e-17 5.98978 0.11501
        CHANNELS 6 Xposition Yposition Zposition Zrotation Xrotation Yrotation
        JOINT torso_4
        {
          OFFSET -1.10457e-17 6.50583 -0.443523
          CHANNELS 6 Xposition Yposition Zposition Zrotation Xrotation Yrotation
          JOINT torso_5
          {
            OFFSET -1.97295e-17 7.60548 -1.50593
            CHANNELS 6 Xposition Yposition Zposition Zrotation Xrotation Yrotation
            JOINT torso_6
            {
              OFFSET -2.53307e-17 9.49737 -0.914492
              CHANNELS 6 Xposition Yposition Zposition Zrotation Xrotation Yrotation
              JOINT torso_7
              {
                OFFSET -2.90401e-17 10.5513 1.57691
                CHANNELS 6 Xposition Yposition Zposition Zrotation Xrotation Yrotation
                JOINT neck_1
                {
                  OFFSET -1.29193e-17 4.78644 0.715339
                  CHANNELS 6 Xposition Yposition Zposition Zrotation Xrotation Yrotation
                  JOINT neck_2
                  {
                    OFFSET -1.8116e-17 4.82109 0.421791
                    CHANNELS 6 Xposition Yposition Zposition Zrotation Xrotation Yrotation
                    JOINT head
                    {
                      OFFSET -2.00958e-17 4.83041 0.765062
                      CHANNELS 6 Xposition Yposition Zposition Zrotation Xrotation Yrotation
                      End Site
                      {
                        OFFSET 0 0.1 0
                      }
                    }
                  }
                }
                JOINT l_shoulder
                {
                  OFFSET 1.23299 -7.60731 7.53374
                  CHANNELS 6 Xposition Yposition Zposition Zrotation Xrotation Yrotation
                  JOINT l_up_arm
                  {
                    OFFSET 12.9547 3.2495 -3.26872
                    CHANNELS 6 Xposition Yposition Zposition Zrotation Xrotation Yrotation
                    JOINT l_low_arm
                    {
                      OFFSET 29.2081 0.0598081 0.137039
                      CHANNELS 6 Xposition Yposition Zposition Zrotation Xrotation Yrotation
                      JOINT l_hand
                      {
                        OFFSET 24.234 0.0496219 0.113701
                        CHANNELS 6 Xposition Yposition Zposition Zrotation Xrotation Yrotation
                        End Site
                        {
                          OFFSET 0.1 0 0
                        }
                      }
                    }
                  }
                }
                JOINT r_shoulder
                {
                  OFFSET -1.23299 -7.60729 7.53365
                  CHANNELS 6 Xposition Yposition Zposition Zrotation Xrotation Yrotation
                  JOINT r_up_arm
                  {
                    OFFSET -12.9547 3.2495 -3.26872
                    CHANNELS 6 Xposition Yposition Zposition Zrotation Xrotation Yrotation
                    JOINT r_low_arm
                    {
                      OFFSET -29.2081 0.0598081 0.137039
                      CHANNELS 6 Xposition Yposition Zposition Zrotation Xrotation Yrotation
                      JOINT r_hand
                      {
                        OFFSET -24.234 0.0496218 0.113702
                        CHANNELS 6 Xposition Yposition Zposition Zrotation Xrotation Yrotation
                        End Site
                        {
                          OFFSET -0.1 0 0
                        }
                      }
                    }
                  }
                }
              }
            }
          }
        }
      }
    }
  }
  JOINT l_up_leg
  {
    OFFSET 9.23673 -4.20556 2.0327
    CHANNELS 6 Xposition Yposition Zposition Zrotation Xrotation Yrotation
    JOINT l_low_leg
    {
      OFFSET -0.852353 -38.7721 -0.655187
      CHANNELS 6 Xposition Yposition Zposition Zrotation Xrotation Yrotation
      JOINT l_foot
      {
        OFFSET -2.32622 -40.4017 -6.04875
        CHANNELS 6 Xposition Yposition Zposition Zrotation Xrotation Yrotation
        JOINT l_toes
        {
          OFFSET 0.779096 -9.8844 12.4959
          CHANNELS 6 Xposition Yposition Zposition Zrotation Xrotation Yrotation
          End Site
          {
            OFFSET 0 0 0.1
          }
        }
      }
    }
  }
  JOINT r_up_leg
  {
    OFFSET -9.23673 -4.20556 2.0327
    CHANNELS 6 Xposition Yposition Zposition Zrotation Xrotation Yrotation
    JOINT r_low_leg
    {
      OFFSET 0.852353 -38.7721 -0.655187
      CHANNELS 6 Xposition Yposition Zposition Zrotation Xrotation Yrotation
      JOINT r_foot
      {
        OFFSET 2.32622 -40.4017 -6.04875
        CHANNELS 6 Xposition Yposition Zposition Zrotation Xrotation Yrotation
        JOINT r_toes
        {
          OFFSET -0.779096 -9.8844 12.4959
          CHANNELS 6 Xposition Yposition Zposition Zrotation Xrotation Yrotation
          End Site
          {
            OFFSET 0 0 0.1
          }
        }
      }
    }
  }
}
MOTION
Frames: 5
Frame Time: 0.016667
0 93.2929 0 -0 0 -0 0 5.07867 -1.15138 -0 0 -0 0 5.61661 1.07143 -0 0 -0 -1.02604e-17 5.98978 0.11501 -0 0 -0 -1.10457e-17 6.50583 -0.443523 -0 0 -0 -1.97295e-17 7.60548 -1.50593 -0 0 -0 -2.53307e-17 9.49737 -0.914492 -0 0 -0 -2.90401e-17 10.5513 1.57691 -0 0 -0 -1.29193e-17 4.78644 0.715339 -0 0 -0 -1.8116e-17 4.82109 0.421791 -0 0 -0 -2.00958e-17 4.83041 0.765062 -0 0 -0 1.23299 -7.60731 7.53374 -0 0 -0 12.9547 3.2495 -3.26872 -0 0 -0 29.2081 0.0598081 0.137039 -0 0 -0 24.234 0.0496219 0.113701 -0 0 -0 -1.23299 -7.60729 7.53365 -0 0 -0 -12.9547 3.2495 -3.26872 -0 0 -0 -29.2081 0.0598081 0.137039 -0 0 -0 -24.234 0.0496218 0.113702 -0 0 -0 9.23673 -4.20556 2.0327 -0 0 -0 -0.852353 -38.7721 -0.655187 -0 0 -0 -2.32622 -40.4017 -6.04875 -0 0 -0 0.779096 -9.8844 12.4959 -0 0 -0 -9.23673 -4.20556 2.0327 -0 0 -0 0.852353 -38.7721 -0.655187 -0 0 -0 2.32622 -40.4017 -6.04875 -0 0 -0 -0.779096 -9.8844 12.4959 -0 0 -0 
10.1162 78.1079 51.6604 -0.119587 -5.28385 -22.2426 0 5.07867 -1.15138 -0.918579 9.29551 0.827924 0 5.61661 1.07143 -0.795476 8.97161 0.756828 -1.02604e-17 5.98978 0.11501 -0.630952 9.02453 0.817979 -1.10457e-17 6.50583 -0.443523 -0.461929 9.32062 0.889401 -1.97295e-17 7.60548 -1.50593 -0.103368 8.60368 0.970209 -2.53307e-17 9.49737 -0.914492 0.395766 8.46985 0.749726 -2.90401e-17 10.5513 1.57691 -0.0302474 -0.0665739 0.21854 -1.29193e-17 4.78644 0.715339 0.568806 12.2187 -8.2585 -1.8116e-17 4.82109 0.421791 3.1551 -1.57263 -3.99013 -2.00958e-17 4.83041 0.765062 -2.31675 -3.98444 -3.80969 1.23299 -7.60731 7.53374 4.45076 -4.69575 -2.05926 12.9547 3.2495 -3.26872 -74.718 12.0614 -32.8419 29.2081 0.0598081 0.137039 8.86154 -3.8799 -47.8162 24.234 0.0496219 0.113701 3.8844 -11.1764 -0.905745 -1.23299 -7.60729 7.53365 -0.0773004 -2.40662 5.45066 -12.9547 3.2495 -3.26872 67.0929 4.13892 30.2163 -29.2081 0.0598081 0.137039 -3.06954 -0.386595 14.949 -24.234 0.0496218 0.113702 -0.147468 -11.8619 1.45937 9.23673 -4.20556 2.0327 1.84102 -43.3558 -15.8489 -0.852353 -38.7721 -0.655187 -19.5826 52.3442 8.69279 -2.32622 -40.4017 -6.04875 0.69858 -11.5349 16.1572 0.779096 -9.8844 12.4959 -5.29255e-17 -8.02521e-16 1.9806e-17 -9.23673 -4.20556 2.0327 -10.6949 -28.1871 12.8137 0.852353 -38.7721 -0.655187 37.9183 67.4798 -24.4315 2.32622 -40.4017 -6.04875 -0.924754 -14.6244 -16.6793 -0.779096 -9.8844 12.4959 -8.35476e-16 -5.51609e-16 -1.27321e-14 
10.2809 77.0226 51.7402 -0.267098 -5.33555 -22.9821 0 5.07867 -1.15138 -0.92015 9.41447 0.919384 0 5.61661 1.07143 -0.81881 9.10827 0.836888 -1.02604e-17 5.98978 0.11501 -0.66226 9.16919 0.897553 -1.10457e-17 6.50583 -0.443523 -0.502287 9.4807 0.96627 -1.97295e-17 7.60548 -1.50593 -0.141606 8.77974 1.05779 -2.53307e-17 9.49737 -0.914492 0.372259 8.63481 0.844286 -2.90401e-17 10.5513 1.57691 -0.0387352 -0.110708 0.219661 -1.29193e-17 4.78644 0.715339 0.543592 12.415 -8.19693 -1.8116e-17 4.82109 0.421791 3.10949 -1.28954 -3.96134 -2.00958e-17 4.83041 0.765062 -2.64192 -3.83677 -3.87031 1.23299 -7.60731 7.53374 4.70211 -4.92134 -2.08959 12.9547 3.2495 -3.26872 -74.803 11.5587 -32.8688 29.2081 0.0598081 0.137039 9.01885 -4.05469 -48.9377 24.234 0.0496219 0.113701 3.88618 -11.0094 -0.887852 -1.23299 -7.60729 7.53365 -0.121304 -2.58863 5.53693 -12.9547 3.2495 -3.26872 66.4552 4.55303 30.7878 -29.2081 0.0598081 0.137039 -3.11306 -0.398065 15.1657 -24.234 0.0496218 0.113702 -0.334224 -11.582 1.16957 9.23673 -4.20556 2.0327 2.35445 -45.1037 -15.0045 -0.852353 -38.7721 -0.655187 -21.7523 55.1543 10.391 -2.32622 -40.4017 -6.04875 1.33203 -12.2521 16.2441 0.779096 -9.8844 12.4959 -5.85918e-16 -8.23768e-16 4.10537e-17 -9.23673 -4.20556 2.0327 -10.1092 -29.8373 13.9915 0.852353 -38.7721 -0.655187 43.1226 69.6081 -29.2282 2.32622 -40.4017 -6.04875 -0.644897 -14.5687 -16.7079 -0.779096 -9.8844 12.4959 -5.04168e-16 -5.64844e-16 -1.27499e-14 
10.4512 75.9298 51.9002 -0.365734 -5.37723 -23.6958 0 5.07867 -1.15138 -0.961209 9.39833 1.00622 0 5.61661 1.07143 -0.869172 9.13966 0.905961 -1.02604e-17 5.98978 0.11501 -0.712787 9.24634 0.965982 -1.10457e-17 6.50583 -0.443523 -0.55365 9.6253 1.03147 -1.97295e-17 7.60548 -1.50593 -0.186119 8.97476 1.13517 -2.53307e-17 9.49737 -0.914492 0.348772 8.83469 0.930224 -2.90401e-17 10.5513 1.57691 -0.0462541 -0.157751 0.221825 -1.29193e-17 4.78644 0.715339 0.505676 12.5389 -8.14968 -1.8116e-17 4.82109 0.421791 3.04832 -1.08691 -3.94105 -2.00958e-17 4.83041 0.765062 -2.83364 -3.45661 -3.83436 1.23299 -7.60731 7.53374 4.88316 -5.10234 -2.09172 12.9547 3.2495 -3.26872 -74.9485 11.1195 -32.6687 29.2081 0.0598081 0.137039 9.2131 -4.28033 -50.3573 24.234 0.0496219 0.113701 3.83624 -10.8144 -0.612068 -1.23299 -7.60729 7.53365 -0.0633902 -2.74088 5.61275 -12.9547 3.2495 -3.26872 65.8897 4.77952 31.2637 -29.2081 0.0598081 0.137039 -3.15242 -0.408588 15.3618 -24.234 0.0496218 0.113702 -0.396658 -10.7976 0.754582 9.23673 -4.20556 2.0327 2.97273 -46.8298 -13.9437 -0.852353 -38.7721 -0.655187 -24.207 57.8839 12.3877 -2.32622 -40.4017 -6.04875 1.81969 -12.95 16.3253 0.779096 -9.8844 12.4959 5.07726e-17 -7.94329e-16 1.16139e-17 -9.23673 -4.20556 2.0327 -9.41674 -31.4776 15.4007 0.852353 -38.7721 -0.655187 49.4209 71.551 -35.1216 2.32622 -40.4017 -6.04875 -0.128311 -14.3555 -16.7309 -0.779096 -9.8844 12.4959 -2.50634e-16 -5.815e-16 -1.27571e-14 
10.6003 74.8626 52.1663 -0.367232 -5.50986 -24.1843 0 5.07867 -1.15138 -1.00661 9.16278 1.0758 0 5.61661 1.07143 -0.920495 9.04681 0.957212 -1.02604e-17 5.98978 0.11501 -0.764179 9.29655 1.01488 -1.10457e-17 6.50583 -0.443523 -0.606485 9.88418 1.07606 -1.97295e-17 7.60548 -1.50593 -0.238631 9.39541 1.1927 -2.53307e-17 9.49737 -0.914492 0.311069 9.29488 1.0039 -2.90401e-17 10.5513 1.57691 -0.0538678 -0.235828 0.221402 -1.29193e-17 4.78644 0.715339 0.466248 12.7203 -8.08054 -1.8116e-17 4.82109 0.421791 2.90957 -1.00504 -3.91675 -2.00958e-17 4.83041 0.765062 -2.75227 -3.24429 -3.90726 1.23299 -7.60731 7.53374 4.98463 -5.41302 -2.05763 12.9547 3.2495 -3.26872 -75.0386 10.6598 -32.666 29.2081 0.0598081 0.137039 9.3884 -4.49402 -51.6748 24.234 0.0496219 0.113701 3.65912 -10.5894 -0.452399 -1.23299 -7.60729 7.53365 0.0700313 -3.05647 5.6545 -12.9547 3.2495 -3.26872 65.5152 4.5954 31.8968 -29.2081 0.0598081 0.137039 -3.16336 -0.41154 15.4164 -24.234 0.0496218 0.113702 -0.429869 -9.50841 0.189776 9.23673 -4.20556 2.0327 3.23281 -48.3383 -13.3001 -0.852353 -38.7721 -0.655187 -26.8691 60.3986 14.6254 -2.32622 -40.4017 -6.04875 2.08617 -13.727 16.4171 0.779096 -9.8844 12.4959 3.8208e-16 -7.83975e-16 1.26053e-18 -9.23673 -4.20556 2.0327 -8.66112 -32.8341 16.9722 0.852353 -38.7721 -0.655187 56.6175 73.1652 -41.9355 2.32622 -40.4017 -6.04875 0.301953 -14.0395 -16.7559 -0.779096 -9.8844 12.4959 -9.13249e-16 -5.50439e-16 -1.2726e-14 
